<?xml version="1.0" standalone="no"?>
<!DOCTYPE svg PUBLIC "-//W3C//DTD SVG 20010904//EN"
 "http://www.w3.org/TR/2001/REC-SVG-20010904/DTD/svg10.dtd">
<svg version="1.0" xmlns="http://www.w3.org/2000/svg"
 width="1001.000000pt" height="1001.000000pt" viewBox="0 0 1001.000000 1001.000000"
 preserveAspectRatio="xMidYMid meet">
<metadata>
Created by potrace 1.11, written by Peter Selinger 2001-2013
</metadata>
<g transform="translate(0.000000,1001.000000) scale(0.100000,-0.100000)"
fill="#000000" stroke="none">
<path d="M4758 9605 c-2 -2 -50 -6 -108 -9 -58 -4 -114 -9 -125 -11 -11 -2
-42 -6 -70 -9 -27 -3 -70 -8 -95 -12 -68 -8 -372 -64 -380 -69 -4 -3 -25 -8
-46 -11 -78 -12 -497 -141 -569 -174 -11 -5 -54 -23 -95 -39 -379 -149 -833
-417 -1165 -688 -161 -132 -369 -329 -510 -484 -35 -37 -199 -232 -223 -264
-4 -5 -31 -41 -60 -80 -28 -38 -55 -75 -60 -80 -22 -27 -183 -277 -212 -330
-19 -33 -41 -71 -50 -85 -26 -38 -153 -293 -200 -399 -117 -268 -241 -645
-276 -841 -3 -14 -9 -41 -14 -60 -5 -19 -11 -51 -14 -71 -3 -20 -8 -42 -10
-50 -6 -16 -33 -201 -42 -280 -3 -30 -7 -65 -9 -78 -18 -109 -26 -636 -12
-811 8 -97 17 -183 23 -220 2 -14 9 -63 14 -110 6 -47 13 -92 15 -100 2 -8 7
-28 9 -45 19 -109 60 -299 82 -375 59 -203 89 -294 154 -465 273 -713 726
-1348 1321 -1855 187 -160 457 -352 639 -454 36 -21 79 -45 95 -55 220 -130
656 -314 930 -392 188 -53 417 -107 530 -123 22 -4 54 -8 70 -11 41 -6 105
-16 135 -20 293 -40 827 -41 1123 -1 26 3 68 9 95 12 26 3 54 7 62 9 8 1 35 6
60 10 62 10 79 13 98 19 9 3 34 7 54 10 111 17 313 71 540 146 914 303 1720
902 2289 1700 193 271 353 559 494 885 37 87 143 380 160 445 2 8 20 73 39
144 19 71 37 140 40 155 3 14 14 69 25 121 11 52 22 115 26 140 3 25 8 52 10
60 2 8 7 40 10 70 3 30 8 66 10 80 23 157 29 282 29 560 1 233 -4 332 -19 470
-2 19 -7 60 -10 90 -8 71 -13 106 -32 215 -8 50 -17 104 -20 120 -2 17 -9 48
-15 70 -5 22 -12 50 -14 63 -19 103 -127 463 -174 582 -94 235 -109 268 -188
430 -121 246 -315 556 -480 768 -224 288 -534 602 -782 792 -25 19 -47 37 -50
41 -11 13 -230 168 -320 226 -220 141 -459 268 -686 363 -55 23 -112 48 -129
55 -153 67 -582 191 -790 229 -75 14 -205 35 -250 41 -27 4 -61 8 -75 10 -14
2 -54 6 -90 10 -36 3 -87 8 -115 11 -51 6 -592 14 -597 9z m572 -1207 c127
-22 278 -85 380 -157 93 -66 1740 -1715 1790 -1792 88 -137 117 -324 75 -489
-12 -48 -66 -160 -96 -200 -34 -43 -511 -520 -568 -567 -121 -99 -272 -166
-431 -193 -50 -8 -185 -13 -400 -13 -365 0 -402 5 -497 69 -66 45 -106 92
-144 170 -99 201 16 463 236 540 43 15 94 18 370 19 209 1 327 5 340 12 22 12
318 308 323 323 5 15 -1438 1458 -1476 1476 -27 12 -65 15 -207 12 -166 -3
-174 -4 -199 -27 -14 -13 -28 -41 -32 -65 -5 -22 -8 -975 -9 -2116 l-1 -2075
-22 -75 c-39 -129 -83 -216 -158 -315 -71 -94 -738 -755 -789 -782 -163 -85
-355 -56 -481 72 -32 33 -82 115 -89 145 -1 3 -5 21 -10 40 -21 90 -11 186 31
277 11 24 150 171 363 386 190 191 350 358 355 370 6 13 10 840 11 2097 0
1141 5 2093 9 2115 63 309 251 553 520 675 61 28 187 63 261 73 63 8 493 5
545 -5z"/>
</g>
</svg>
